<svg viewBox="0 0 24 24" fill="none" xmlns="http://www.w3.org/2000/svg">
<path fill-rule="evenodd" clip-rule="evenodd" d="M17.7799 0C13.5575 0.00219077 9.47356 1.49769 6.25831 4.21907C3.04306 6.94046 0.906188 10.7103 0.22978 14.8545C-0.446628 18.9986 0.381529 23.2469 2.56619 26.8397C4.75085 30.4324 8.14953 33.1354 12.1545 34.4652C13.0381 34.6292 13.3709 34.0816 13.3709 33.616C13.3709 33.1503 13.3532 31.8003 13.3473 30.3243C8.39936 31.3932 7.35382 28.2363 7.35382 28.2363C6.54682 26.1864 5.38051 25.6476 5.38051 25.6476C3.76653 24.5523 5.50128 24.5728 5.50128 24.5728C7.28903 24.6987 8.22856 26.3973 8.22856 26.3973C9.81309 29.1003 12.3901 28.3183 13.4033 27.8615C13.5623 26.7165 14.0248 25.9375 14.5343 25.4953C10.5818 25.0502 6.42901 23.5332 6.42901 16.7567C6.40451 14.9993 7.0604 13.2997 8.26095 12.0097C8.07835 11.5645 7.46868 9.76646 8.43471 7.32412C8.43471 7.32412 9.92795 6.8497 13.3267 9.13684C16.242 8.34414 19.3178 8.34414 22.2331 9.13684C25.629 6.8497 27.1192 7.32412 27.1192 7.32412C28.0882 9.76061 27.4786 11.5587 27.2959 12.0097C28.5003 13.2999 29.1576 15.0025 29.1308 16.7626C29.1308 23.5537 24.9692 25.0502 21.0108 25.4865C21.647 26.0371 22.2154 27.1118 22.2154 28.7635C22.2154 31.1297 22.1948 33.0332 22.1948 33.616C22.1948 34.0874 22.5158 34.638 23.4171 34.4652C27.4226 33.1352 30.8216 30.4318 33.0062 26.8384C35.1908 23.2451 36.0185 18.9961 35.3414 14.8516C34.6642 10.707 32.5262 6.93715 29.3099 4.21623C26.0936 1.49531 22.0087 0.00080215 17.7858 0H17.7799Z" fill="#191717"/>
<path d="M6.72947 25.3928C6.69118 25.4807 6.54981 25.507 6.43495 25.4455C6.32009 25.384 6.23468 25.2698 6.27591 25.179C6.31715 25.0883 6.45557 25.0648 6.57044 25.1263C6.6853 25.1878 6.77365 25.305 6.72947 25.3928Z" fill="#191717"/>
<path d="M7.45063 26.1922C7.38964 26.2228 7.31986 26.2313 7.25323 26.2163C7.18661 26.2014 7.1273 26.1639 7.08543 26.1102C6.97056 25.9872 6.94699 25.8174 7.03534 25.7412C7.1237 25.6651 7.28276 25.7002 7.39762 25.8232C7.51248 25.9462 7.53899 26.1161 7.45063 26.1922Z" fill="#191717"/>
<path d="M8.15206 27.2085C8.04308 27.2846 7.85752 27.2085 7.75444 27.0562C7.72593 27.0289 7.70327 26.9961 7.68778 26.9599C7.6723 26.9237 7.66431 26.8847 7.66431 26.8453C7.66431 26.806 7.6723 26.767 7.68778 26.7308C7.70327 26.6946 7.72593 26.6618 7.75444 26.6345C7.86341 26.5613 8.04897 26.6345 8.15206 26.7839C8.25514 26.9332 8.25808 27.1323 8.15206 27.2085Z" fill="#191717"/>
<path d="M9.10317 28.1925C9.00598 28.3008 8.80865 28.2715 8.64666 28.1251C8.48468 27.9787 8.44638 27.7796 8.54357 27.6741C8.64076 27.5687 8.83809 27.598 9.00597 27.7415C9.17385 27.885 9.20625 28.087 9.10317 28.1925Z" fill="#191717"/>
<path d="M10.4372 28.7665C10.3931 28.9041 10.1928 28.9656 9.99252 28.907C9.79224 28.8485 9.65971 28.6845 9.698 28.5439C9.73628 28.4033 9.93951 28.3389 10.1427 28.4034C10.3459 28.4678 10.4755 28.623 10.4372 28.7665Z" fill="#191717"/>
<path d="M11.8922 28.866C11.8922 29.0095 11.7273 29.1325 11.5152 29.1355C11.3032 29.1384 11.1294 29.0212 11.1294 28.8778C11.1294 28.7343 11.2943 28.6113 11.5064 28.6083C11.7184 28.6054 11.8922 28.7196 11.8922 28.866Z" fill="#191717"/>
<path d="M13.247 28.6405C13.2735 28.784 13.1262 28.9334 12.9142 28.9685C12.7021 29.0037 12.5166 28.9187 12.49 28.7782C12.4635 28.6376 12.6167 28.4853 12.8229 28.4472C13.029 28.4092 13.2205 28.497 13.247 28.6405Z" fill="#191717"/>
</svg>
